/* XPM */
static char *a94e5c5bb48a4ea5942913cc6e35ab24rfkjbjb4i9W5FHxR[] = {
/* columns rows colors chars-per-pixel */
"16 20 15 1 ",
"  c None",
". c #E7E5DD",
"X c #E7E6DD",
"o c #E7E6DE",
"O c #E8E6DE",
"+ c #E8E7DE",
"@ c #E8E7DF",
"# c #E9E7DF",
"$ c #E8E7E0",
"% c #E9E7E0",
"& c #E9E8E0",
"* c #E9E8E1",
"= c #EAE8E1",
"- c #EAE9E1",
"; c #EAE9E2",
/* pixels */
"                ",
"       =#=@     ",
"     &=#@=#X    ",
"    @@==#@@@X   ",
"   @=@#@@@@=    ",
"  =$@@=         ",
"  @@@#          ",
"  $$@#=         ",
"  @X@#=#$@#@=   ",
" XX@@@@=#==#@=  ",
" X@X@#@#====#== ",
" #@@@@=    ==== ",
" #@=@#=    #@@& ",
"  @===@    ==@# ",
"  @@=#==@##@XX@ ",
"   @@#=X@=@@@#X ",
"    #=@@@#===@  ",
"      =#==@=    ",
"                ",
"                "
};
