/* XPM */
static char *f77e10504f724df0cc5a59d40cd943f8530TD0nur4dX1FRV[] = {
/* columns rows colors chars-per-pixel */
"16 20 12 1 ",
"  c None",
". c #E7E6DE",
"X c #E8E6DE",
"o c #E8E7DF",
"O c #E9E7DF",
"+ c #E8E7E0",
"@ c #E9E7E0",
"# c #E9E8E0",
"$ c #E9E8E1",
"% c #EAE8E1",
"& c #EAE9E1",
"* c #EAE9E2",
/* pixels */
"                ",
"     ##O##      ",
"    ####O.#     ",
"    O++##+##    ",
"       #O#+++   ",
"        O++##   ",
"         +O.#   ",
"        O+##    ",
"       .OOO+    ",
"     ##.OO#     ",
"    O.OOO####   ",
"      O+O+#O+   ",
"         #####  ",
"         O+.#   ",
"         #+O+   ",
"   ++#######+   ",
"   ###*#*%+#    ",
"   #####++*     ",
"     +#++       ",
"                "
};
