/* XPM */
static char *a45a38e4111547e0a24f1fc70fd5dc14Tv4ZI4OuC9isdq0g[] = {
/* columns rows colors chars-per-pixel */
"16 20 14 1 ",
"  c None",
". c #E6E5DC",
"X c #E7E6DE",
"o c #E8E6DE",
"O c #E8E7DE",
"+ c #E8E7DF",
"@ c #E9E7DF",
"# c #E8E7E0",
"$ c #E9E7E0",
"% c #E9E8E0",
"& c #E9E8E1",
"* c #EAE8E1",
"= c #EAE9E1",
"- c #EAE9E2",
/* pixels */
"                ",
"                ",
"    &&&@@&@@@   ",
"  &&+@@+++&++&  ",
"  @&&&&@@@+@&+  ",
"  &#@&& &@&+@&  ",
"  &#&@    +++&  ",
"   +@&    &@@&  ",
"         @@+&&  ",
"         ++&@   ",
"        @@++@   ",
"        @+&@    ",
"       &++@     ",
"       &&+&     ",
"       =&+      ",
"      =&&@      ",
"     &&=@       ",
"     &&&@       ",
"      &         ",
"                "
};
