/* XPM */
static char *ac6afd1ffa754e2bfd5889fb97f20909ckwiPlL0JmSsLgIe[] = {
/* columns rows colors chars-per-pixel */
"16 20 14 1 ",
"  c None",
". c #E7E5DD",
"X c #E7E6DE",
"o c #E8E6DE",
"O c #E8E7DE",
"+ c #E8E7DF",
"@ c #E9E7DF",
"# c #E8E7E0",
"$ c #E9E7E0",
"% c #E9E8E0",
"& c #E9E8E1",
"* c #EAE8E1",
"= c #EAE9E1",
"- c #EAE9E2",
/* pixels */
"                ",
"                ",
"     &+$$@@     ",
"   &+++++&&O@   ",
"   $X+&  &OXO   ",
"  ++&&    &@#O  ",
"  $++@@   @@X&  ",
"  +++&@& &&++&  ",
"   @&&&&@&@O&   ",
"    &@&&&&&O    ",
"   &@&&&&@@@@   ",
"   @@&@@&&@@OO& ",
"  &@&&&    &&O& ",
"  &@O&@   X&&@& ",
"  &&OO#O +&&@&@ ",
"  =@&O&OO@OO@@+ ",
"   =&&@OO&O&XO  ",
"     @O&@&OO    ",
"                ",
"                "
};
