/* XPM */
static char *result[] = {
/* columns rows colors chars-per-pixel */
"16 20 13 1 ",
"  c #E7E6DD",
". c #E7E6DE",
"X c #E8E6DE",
"o c #E8E7DE",
"O c #E8E6DF",
"+ c #E8E7DF",
"@ c #E9E7DF",
"# c #E8E7E0",
"$ c #E9E7E0",
"% c #E9E8E0",
"& c #E9E8E1",
"* c #EAE8E1",
"= c None",
/* pixels */
"================",
"=====@+..X.=====",
"====+@++.XX ====",
"===++@+++.X.+===",
"===O$#++++.+$===",
"==..X+@+++%+$$==",
"==++@+===%%++o==",
"==#%%=====%%++==",
"=#%%%=====+%#+==",
"=+%%*=====$%##==",
"=%+#&=====&$++==",
"=+++#=====%@++==",
"==++$%===%%%@@==",
"==O+$%%+++%%%%==",
"==++++%+++#%%%==",
"===+$$%++++%%===",
"====$%%@+++%====",
"=====%%@+++=====",
"=======+++======",
"================"
};
