/* XPM */
static char *result[] = {
/* columns rows colors chars-per-pixel */
"16 20 13 1 ",
"  c #E7E6DD",
". c #E7E6DE",
"X c #E8E6DE",
"o c #E8E7DF",
"O c #E9E7DF",
"+ c #E8E7E0",
"@ c #E9E7E0",
"# c #E9E8E0",
"$ c #E9E8E1",
"% c #EAE8E1",
"& c #EAE9E1",
"* c #EAE9E2",
"= c None",
/* pixels */
"================",
"========$#======",
"======O#*#$=====",
"=====%o#&##=====",
"=====#oo#&*=====",
"=====#Xoo##=====",
"=======oooo=====",
"=======+#oo=====",
"=======oo#o=====",
"=======oo..=====",
"=======o@. =====",
"=======X.oo=====",
"=======#XXo=====",
"=======##oo=====",
"=======.o#o=====",
"=======.o@@=====",
"========#+o=====",
"========$@======",
"================",
"================"
};
