/* XPM */
static char *_cd5ac62c44c4209cd9a0e87290adbb7wCWwQ0Ho4IQPrRTn[] = {
/* columns rows colors chars-per-pixel */
"16 20 15 1 ",
"  c None",
". c #E6E5DD",
"X c #E7E6DD",
"o c #E7E6DE",
"O c #E8E6DE",
"+ c #E8E7DE",
"@ c #E8E7DF",
"# c #E9E7DF",
"$ c #E8E7E0",
"% c #E9E7E0",
"& c #E9E8E0",
"* c #E9E8E1",
"= c #EAE8E1",
"- c #EAE9E1",
"; c #EAE9E2",
/* pixels */
"                ",
"    &##@@@      ",
"   @o##@@%%@@   ",
"   oo@&%%@%@&&  ",
"   o@@@@@@%%&   ",
"   @@@          ",
"   %@@          ",
"   @@@@@&&      ",
"   @@@@&%&&&%   ",
"   &&@@@@&&&&&  ",
"   &&%  @@&&%%  ",
"          %&&&  ",
"          $$&&  ",
"          $%&&  ",
"          $$%&  ",
"   &@@@##@%&%&  ",
"   o@@@@&&&&%   ",
"    @@@@&&;&    ",
"      &&&&      ",
"                "
};
