/* XPM */
static char *_c47832a5faa4a1de9e81454fa79fc95H8agBsIEnRlK91Nd[] = {
/* columns rows colors chars-per-pixel */
"16 20 12 1 ",
"  c None",
". c #E7E6DE",
"X c #E8E6DE",
"o c #E8E7DF",
"O c #E9E7DF",
"+ c #E8E7E0",
"@ c #E9E7E0",
"# c #E9E8E0",
"$ c #E9E8E1",
"% c #EAE8E1",
"& c #EAE9E1",
"* c #EAE9E2",
/* pixels */
"                ",
"         #      ",
"     @####@+    ",
"    @##.#@@##   ",
"    @#.#o@####  ",
"   o@#@#@.+###  ",
"    ##   #@###  ",
"          @@##  ",
"          @@@o  ",
"          ##@   ",
"         ####   ",
"        #####   ",
"      ***###    ",
"     ####**     ",
"    #*####      ",
"    #####*####  ",
"   @@o######o## ",
"    #@ooo###@## ",
"                ",
"                "
};
