/* XPM */
static char *_dde8de8fad84fdc9dba33a152c859cdxvUxEr5MazUWCOIy[] = {
/* columns rows colors chars-per-pixel */
"16 20 16 1 ",
"  c None",
". c #E6E5DC",
"X c #E7E5DD",
"o c #E7E6DD",
"O c #E7E6DE",
"+ c #E8E6DE",
"@ c #E8E7DE",
"# c #E8E6DF",
"$ c #E8E7DF",
"% c #E9E7DF",
"& c #E9E7E0",
"* c #E9E8E0",
"= c #E9E8E1",
"- c #EAE8E1",
"; c #EAE9E1",
": c #EAE9E2",
/* pixels */
"                ",
"       $$*      ",
"     $$$$$$$    ",
"    $$$$$$$$$   ",
"   $$$&&&&&$$$  ",
"  &**$&***&$$$& ",
"  $**::   .$$&. ",
"  ****    $$**$ ",
"  *&**    $$$$$ ",
"  *::**&*&$$$%* ",
"  *::&*&*$$&*** ",
"   **&*.&*$**** ",
"    *&&&*****$& ",
"       &***.*** ",
"          *$*** ",
"     **  &$$&*  ",
"    *******&*   ",
"    &&&&*****   ",
"     **=***     ",
"                "
};
