/* XPM */
static char *_1da05bfef9b4624c223a8d45c557372JaftCMm4znjlOkHF[] = {
/* columns rows colors chars-per-pixel */
"32 32 10 1 ",
"  c #0E121C",
". c #112031",
"X c #1B2C3A",
"o c #273845",
"O c #364A53",
"+ c #875002",
"@ c #8C660C",
"# c #AF7B2E",
"$ c #BFAA2C",
"% c #EBC957",
/* pixels */
"XXXXXXXXXXXXXXXXXXXXXXXXXXXXXXXX",
"XoooooooooooooooooooooooooooooO.",
"XoXooooooooooooXooooooooooooXoO.",
"XoooooooooooooooooooooooooooooO.",
"XoooooooooooooooooooooooooooooO.",
"XoooooooooooooooooooooooooooooO.",
"XoooooooooooooooooooooooooooooO.",
"XoooooooooooooooooooooooooooooO.",
"XoooooooooooooooooooooooooooooO.",
"XoooooooooooooooooooooooooooooO.",
"XoooooooooooooooooooooooooooooO.",
"XoooooooooooooooooooooooooooooO.",
"XoooooooooooooooooooooooooooooO.",
"XoooooooooooooooooooooooooooooO.",
"XoooooooooooooooooooooooooooooO.",
"XoXoooooo               ooooXoO.",
"Xoooooooo @$%$%%%%%%%$@ ooooooO.",
"Xoooooooo  #########++  ooooooO.",
"Xooooooooo #########++ oooooooO.",
"Xooooooooo ###    ##++ oooooooO.",
"Xoooooooo  ###    ##++  ooooooO.",
"Xoooooooo @$%%%  %%$%$@ ooooooO.",
"Xoooooooo  #########++  ooooooO.",
"Xooooooooo ####  ###++ oooooooO.",
"Xooooooooo ####  ###++ oooooooO.",
"Xoooooooo  ##  ##  #++  ooooooO.",
"Xoooooooo @$   %%   %$@ ooooooO.",
"Xoooooooo  #  ####  ++  ooooooO.",
"XoXooooooo #########++ oooooXoO.",
"Xooooooooo #########++ oooooooO.",
"XOOOOOOOO  #########++  OOOOOOO.",
"X........ @$%%%%%%%$%$@ ........"
};
