/* XPM */
static char *ccb83352ce31424fd9cb106cfd572831qHGxQVlzfihVq6p8[] = {
/* columns rows colors chars-per-pixel */
"32 32 7 1 ",
"  c None",
". c #16181E",
"X c #161922",
"o c #2A3041",
"O c #333B51",
"+ c #007F7F",
"@ c #506275",
/* pixels */
"                                ",
"                                ",
"                                ",
"                                ",
"                                ",
"                                ",
"                                ",
"     XXXXXXXXXXXXXXXXXXXXXXX    ",
"     X@@@@@@@@@@@@@@@@XooooX    ",
"     X@oooooooooooooo@XoXXXX    ",
"     X@oooooooooooooo@XoXooX    ",
"     X@@@@@@@@@@@@@@@@XoXooX    ",
"     XXXXXXXXXXXXXXXXXXoXooX    ",
"       XOOOOOOOOOOOOOOXoXooX    ",
"       XOooooooooooooOXoXooX    ",
"       XOo..........@OXXXooX    ",
"       XOo.++.+.+++.@OXoXooX    ",
"       XOo.++.......@OXoXXXX    ",
"       XOo.++.++.++.@OXooooX    ",
"       XOo..........@OXooooX    ",
"       XOo.+.++.+++.@OXooooX    ",
"       XOo..........@OXooooX    ",
"       XOo..........@OXooooX    ",
"       XO@@@@@@@@@@@@OXoXXoX    ",
"      XOOOOOOOOOOOOOOOXooooX    ",
"     XO..+.+.+.+.+...OXoXXoX    ",
"    XO..+.+.+.+.+.+.OOXooooX    ",
"    X@@@@@@@@@@@o@@@@@XoXXoX    ",
"    X@oOoO@O@O@@O@@@@@XoXXoX    ",
"    X@OoOo@O@O@@OOOOOoXoXXoX    ",
"    X@oOoO@O@O@@@@O@@@XoXXoX    ",
"    X@@@@@@@@@@@@@o@@@XooooX    "
};
