/* XPM */
static char *ef5325fe09b44ea5ebf0f722ad2c1f21LB9hyOCvkO71wbkx[] = {
/* columns rows colors chars-per-pixel */
"32 32 10 1 ",
"  c #0E1118",
". c #0E121C",
"X c #112031",
"o c #1B2C3A",
"O c #252C3F",
"+ c #273845",
"@ c #303850",
"# c #364A53",
"$ c #4F6276",
"% c #008080",
/* pixels */
"oooooooooooooooooooooooooooooooo",
"o+++++++++++++++++++++++++++++#X",
"o+o++++++++++++o++++++++++++o+#X",
"o+++++++++++++++++++++++++++++#X",
"o+++++++++++++++++++++++++++++#X",
"o+++++++++++++++++++++++++++++#X",
"o+++++++++++++++++++++++++++++#X",
"o+++++++++++++++++++++++++++++#X",
"o+++++++++++++++++++++++++++++#X",
"o+++++++++++++++++++++++++++++#X",
"o+++++++++++++++++++++++++++++#X",
"o++++++++++++++++............+#X",
"o++++++++++++++++.@@@@@@@@@@.+#X",
"o+++++++++++++++.@         @.+#X",
"o+++++++++++++++.@ %%%% % @@.+#X",
"o+o++++++++++++.@         @@.+#X",
"o++++++++++++++.@ %% %%% @@@.+#X",
"o+++++++++++++.@         @@@.+#X",
"o+++++++++++++.@ %% % % @@@@.+#X",
"o++++++++++++.@         @@@@.+#X",
"o+............@@@@@@@@@@@@@@...X",
"o+.$$$$$$$$$$$$$$$$$$$$$$OOOOO.X",
"o+.$@@@@@@@@@@@@@@$@O$O@$OOOOO.X",
"o+.$@@@@@@@@@@@@@@$OO$OO$OOOOO.X",
"o+.$$$$$$$$$$$$$$$$$$$$$$OOOOO.X",
"o+.OOOOOOOOOOOOO......$$$OOOOO.X",
"o+.$$$$$$$$$$OOO.++++.$$$OOOOO.X",
"o+.$@@@@@@@@$OOO.++++.$$$OOOOO.X",
"o+.$@$$$$$$@$OOO.++++.$$$OOOOO.X",
"o+.$@@@@@@@@$OOO.++++.$$$OOOOO.X",
"o#.$$$$$$$$$$OOO.####.$$$OOOOO.X",
"oX.$$$$$$$$$$OOO.XXXX.$$$OOOOO.X"
};
