/* XPM */
static char *f9389f4f05de4393c72721b8a4edf322f2amUUNIUX7SWRQG[] = {
/* columns rows colors chars-per-pixel */
"32 32 9 1 ",
"  c #76899D",
". c #60748A",
"X c #333B51",
"o c #89A7B6",
"O c #282C38",
"+ c #4C5C76",
"@ c #3E4860",
"# c #DAEFF2",
"$ c white",
/* pixels */
"   ..Xo......O.......OOOOOOOOOOO",
"   ..Xo......O.......OO+..++++OO",
"   ..Xo+++++@O.......O+X@X@@X@OO",
".....Xo...+..OO......O.@@X@@@@OO",
".....X ...+..OOOOOOOOO.@@X@@@@OO",
".....X ...@.OOO#o o  O.@@X@@@@OO",
"XXXXXXXXXXOOOOo+...@.O.XXXXXXXOO",
"X ##o o     Oo.....+.O.@@@@@X@OO",
" .....@.....Oo++++++.O+@@@@@X@OO",
"o.+...+...+.O .+.....O+@@@X@XOOO",
"o.....+.....O .+..+.OO+@@@@@OOOO",
" @++..+....OO .@...OOOOOOOOOOOOO",
"o..++@OOOOOOOOOOOOOOOOO+....+++O",
" .....Oooooo o      OO.@@@@@@X@O",
" .+..OO ...+..+++++@@O+@@@@@@@@O",
"OOOOOOO @++++++......O+XXXXXXXXO",
" o oo  O......@......O+@@@@X@@OO",
" ..+..@OOOOOOOOOOOOOOOOOOOOOOOOO",
" ..+...OO++++OO+++++O@@@@@X@@@OO",
"o.++++@O@@@X+O+@@XXXO@X@@@XXXXXO",
"o.+...O@@@@@+O+@@X@@OO@@@@X@@@@O",
" .@..OOXXXXX+OOOOOOOOOOOOOOOOOOO",
"OOOOOO@@@X@@+OO@@@@@@@@@@@@@@@@O",
"O@@X@@@@@X@@+OXXXXXXXXXXXXXXXXXO",
"OXXXX@@@@X@XOO@@X@@@@@@@@@@@@@OO",
"O@@@@@@@@X@OOO@@X@@@@@@@OOOOOOOO",
"OOOOOOOOOOOOOOOOOOOOOOOOO@@O@O@O",
"OOOOOOOOO@@@@OOOOO@@OOOOO@@O@O@O",
"OOOO@O@O@@@@@@O@O@@@OOOOOOOOOOOO",
"OOOO@O@O@@@@@@O@O@@OOOOOOOOOO@@O",
"OOOOOOOOOOOOOOOOOOOOOOOOOOOOOOOO",
"OOOOOOOOOOOOOOOOOOOOOOOOOOOOOOOO"
};
