/* XPM */
static char *_9418bae37414e8e8563bbb4ab197897qI3KA4XyIixgKaSM[] = {
/* columns rows colors chars-per-pixel */
"32 32 9 1 ",
"  c #282C38",
". c #60748A",
"X c #89A7B6",
"o c #333B51",
"O c #76899D",
"+ c #4C5C76",
"@ c #3E4860",
"# c #DAEFF2",
"$ c white",
/* pixels */
"           ....... ......Xo..OOO",
"  ++++..+  ....... ......Xo..OOO",
"  @o@@o@o+ ....... @+++++Xo..OOO",
"  @@@@o@@. ......  ..+...Xo.....",
"  @@@@o@@.         ..+...Oo.....",
"  @@@@o@@. OOXOX#   .@...Oo.....",
"  ooooooo. .@...+X    oooooooooo",
"  @o@@@@@. .+.....X OOOOOXOX##Oo",
"  @o@@@@@+ .++++++X .....@.....O",
"   o@o@@@+ .....+.O .+...+...+.X",
"    @@@@@+  .+..+.O .....+.....X",
"             ...@.O  ....+..++@O",
" +++....+                 @++..X",
" @o@@@@@@.  OOOOOOXOXXXXX .....O",
" @@@@@@@@+ @@+++++..+...O  ..+.O",
" oooooooo+ ......++++++@O       ",
"  @@o@@@@+ ......@...... OOXXOXO",
"                         @..+..O",
"  @@@o@@@@@ +++++  ++++  ...+..O",
" ooooo@@@o@ ooo@@+ +o@@@ @++++.X",
" @@@@o@@@@  @@o@@+ +@@@@@ ...+.X",
"                   +ooooo  ..@.O",
" @@@@@@@@@@@@@@@@  +@@o@@@      ",
" ooooooooooooooooo +@@o@@@@@o@@ ",
"  @@@@@@@@@@@@@o@@  o@o@@@@oooo ",
"        @@@@@@@o@@   @o@@@@@@@@ ",
" @ @ @@                         ",
" @ @ @@     @@     @@@@         ",
"            @@@ @ @@@@@@ @ @    ",
" @@          @@ @ @@@@@@ @ @    ",
"                                ",
"                                "
};
