/* XPM */
static char *_5f50710c7e74ca093977f52b225883bBV5WFakmuFnOuEjm[] = {
/* columns rows colors chars-per-pixel */
"32 32 10 1 ",
"  c black",
". c #112031",
"X c #1B2C3A",
"o c #222034",
"O c #273845",
"+ c #3F3F74",
"@ c #364A53",
"# c #D77BBA",
"$ c #CBDBFC",
"% c white",
/* pixels */
"XXXXXXXXXXXXXXXXXXXXXXXXXXXXXXXX",
"XOOOOOOOOOOOOOOOOOOOOOOOOOOOOO@.",
"XOXOOOOOOOooooooooooOOOOOOOOXO@.",
"XOOOOOOooo%%%%%%%%%%oooOOOOOOO@.",
"XOOOOOOo%%%%%%%%%%%%%$oOOOOOOO@.",
"XOOOOOOo%%%%%%%%%%%%%%oOOOOOOO@.",
"XOOOOOo%%%%%%%%%%%%%%%$oOOOOOO@.",
"XOOOOOo%%%%%%%%%%%%%%%$oOOOOOO@.",
"XOOOOo%%%%%%%%%%%%%%%%$$oOOOOO@.",
"XOOOOo%%%%%%%%%%%%%%%%$$oOOOOO@.",
"XOOOOo%%%%%%%%%%%%%%%%$$oOOOOO@.",
"XOOOOo%%%%oo%%%%%%oo%%$$oOOOOO@.",
"XOOOOo%%%%oo%%%%%%oo%%$$oOOOOO@.",
"XOOOOo%%%%++%%%%%%++%%$$oOOOOO@.",
"XOOOOo%%##%%%%%%%%%%##$$oOOOOO@.",
"XOXOo$%%%%%%%%  %%%%%%$$$oOOXO@.",
"XOOOo$%%%%%%%%%%%%%%%%$$$oOOOO@.",
"XOOOo$%%%%%%%%%%%%%%%$$$$oOOOO@.",
"XOOO $%%%%%%%%%%%%%%%$$$$ OOOO@.",
"XOOo$$%%%%%%%%%%%%%%%$$$$$oOOO@.",
"XOo$$$%%%%%%%%%%%%%%%$$$$$$oOO@.",
"XOo$$$$%+%%%%%%%%%%%$$$$$$$oOO@.",
"XOo$$$$%+%%%%%%%%%+%$$$$$$$oOO@.",
"Xo$$$$$++%%%%%%%%++$$$$$$$$$oO@.",
"X++$$$$++%%%%%%%%++$$$$$$$$$+O@.",
"XO+$$$++$$%%%%%%+O+$$$$$$$$+OO@.",
"XOO+o++$$$$%%%%%+O+$$$$$$o+OOO@.",
"XOOOO+o$$$$$$%%++O++$$$ooOOOOO@.",
"XOXOOOOoooo$$$++OOO+oooOOOOOXO@.",
"XOOOOOOOOOOooo+OOOOOOOOOOOOOOO@.",
"X@@@@@@@@@@@@@@@@@@@@@@@@@@@@@@.",
"X..............................."
};
