/* XPM */
static char *a7b96939f8794bf9bc608ff3b8296b93uJ2MjYHwMTGJ4U4W[] = {
/* columns rows colors chars-per-pixel */
"32 32 10 1 ",
"  c black",
". c #112031",
"X c #1B2C3A",
"o c #222034",
"O c #273845",
"+ c #3F3F74",
"@ c #364A53",
"# c #D77BBA",
"$ c #CBDBFC",
"% c white",
/* pixels */
"XXXXXXXXXXXXXXXXXXXXXXXXXXXXXXXX",
"XOOOOOOOOOOOOOOOOOOOOOOOOOOOOO@.",
"XOXOOOOOOOooooooooooOOOOOOOOXO@.",
"XOOOOOOooo%%%%%%%%%%oooOOOOOOO@.",
"XOOOOOOo%%%%%%%%%%%%%$oOOOOOOO@.",
"XOOOOOOo%%%%%%%%%%%%%%oOOOOOOO@.",
"XOOOOOOo%%%%%%%%%%%%%%oOOOOOOO@.",
"XOOOOOOo%%%%%%%%%%%%%%oOOOOOOO@.",
"XOOOOOo%%%%%%%%%%%%%%%$oOOOOOO@.",
"XOOOOOo%%%%%%%%%%%%%%%$oOOOOOO@.",
"XOOOOOo%%%%%%%%%%%%%%%$oOOOOOO@.",
"XOOOOOo%%%%%%%%%%%%%%%$oOOOOOO@.",
"XOOOOOo%%%%%%%%%%%%%%%$oOOOOOO@.",
"XOOOOOo%%%oo%%%%%%oo%%$oOOOOOO@.",
"XOOOOOo%##%%%%%%%%%%##$oOOOOOO@.",
"XOXOOo$%%%%%%%  %%%%%%$$oOOOXO@.",
"XOOOOo$%%%%%%%%%%%%%%%$$oOOOOO@.",
"XOOOOo$%%%%%%%%%%%%%%$$$oOOOOO@.",
"XOOOO $%%%%%%%%%%%%%%$$$ OOOOO@.",
"XOOOO $%%%%%%%%%%%%%%$$$ OOOOO@.",
"XOOOO $%%%%%%%%%%%%%%$$$ OOOOO@.",
"XOOOo$$%%%%%%%%%%%%%%$$$$oOOOO@.",
"XOOo$$$%%%+%%%%%%%%%%$$$$$oOOO@.",
"XOOo$$$$%+%%%%%%%%%%$$$$$$oOOO@.",
"XOOo$$$$++%%%%%%%++%$$$$$$oOOO@.",
"XOo$$$$$+%%%%%%%%++$$$$$$$$oOO@.",
"XO++$$$++%%%%%%%+O+$$$$$$$$+OO@.",
"XOO+$$++$$%%%%%%+OO+$$$$$$+OOO@.",
"XOXO+o+$$$$%%%%+OOO+$$$$o+OOXO@.",
"XOOOOOoo$$$$$%+OOOO+$$ooOOOOOO@.",
"X@@@@@@oooo$$+@@@@@oooo@@@@@@@@.",
"X..........oo..................."
};
