/* XPM */
static char *_09d649e2c0e42b1ea4e9cc815ba8eac8RKUFn8ELOzJR8wQ[] = {
/* columns rows colors chars-per-pixel */
"32 32 10 1 ",
"  c black",
". c #112031",
"X c #1B2C3A",
"o c #222034",
"O c #273845",
"+ c #3F3F74",
"@ c #364A53",
"# c #D77BBA",
"$ c #CBDBFC",
"% c white",
/* pixels */
"XXXXXXXXXXXXXXXXXXXXXXXXXXXXXXXX",
"XOOOOOOOOOOOOOOOOOOOOOOOOOOOOO@.",
"XOXOOOOOOOOOOOOXOOOOOOOOOOOOXO@.",
"XOOOOOOOOOOOOOOOOOOOOOOOOOOOOO@.",
"XOOOOOOOOOOooooooooooOOOOOOOOO@.",
"XOOOOOOOooo%%%%%%%%%%oooOOOOOO@.",
"XOOOOOOo%%%%%%%%%%%%%%$$oOOOOO@.",
"XOOOOOOo%%%%%%%%%%%%%%%$oOOOOO@.",
"XOOOOOo%%%%%%%%%%%%%%%%$$oOOOO@.",
"XOOOOOo%%%%%%%%%%%%%%%%$$oOOOO@.",
"XOOOOo%%%%%%%%%%%%%%%%%$$$oOOO@.",
"XOOOOo%%%%%%%%%%%%%%%%%$$$oOOO@.",
"XOOOOo%%%%%oo%%%%%%oo%%$$$oOOO@.",
"XOOOOo%%%%%oo%%%%%%oo%%$$$oOOO@.",
"XOOOOo%%%%%++%%%%%%++%%$$$oOOO@.",
"XOXOOo%%%%%++%%%%%%++%%$$$oOXO@.",
"XOOOOo%%%##%%%%%%%%%%##$$$oOOO@.",
"XOOOo$%%%%%%%%%  %%%%%%$$$$oOO@.",
"XOOOo$%%%%%%%%%%%%%%%%%$$$$oOO@.",
"XOOOo$%%%%%%%%%%%%%%%%$$$$$oOO@.",
"XOOo$$%%%%%%%%%%%%%%%%$$$$$$oO@.",
"XOo$$$%%%%%%%%%%%%%%%%$$$$$$$o@.",
"XOo$$$$%%%%%%%%%%%%%%$$$$$$$$o@.",
"XOo$$$$%+%%%%%%%%%%%+$$$$$$$$o@.",
"Xo$$$$$++%%%%%%%%%%%+$$$$$$$$$o.",
"X++$$$$+$%%%%%%%%%%++$$$$$$$$$+.",
"XO+$$$++$$$%%%%%%%+O+$$$$$$$$+@.",
"XOO+o++$$$$$%%%%%%+OO+$$$$$o+O@.",
"XOXOOoo$$$$$$$%%$+OOO+$$$ooOXO@.",
"XOOOOOOooooo$$$$++OOO+oooOOOOO@.",
"X@@@@@@@@@@@ooooo@@@@@@@@@@@@@@.",
"X..............................."
};
