/* XPM */
static char *_8b716fe655f4591b0678d557fad9f19HiYmltMNIufOTWRJ[] = {
/* columns rows colors chars-per-pixel */
"32 32 10 1 ",
"  c black",
". c #112031",
"X c #1B2C3A",
"o c #222034",
"O c #273845",
"+ c #3F3F74",
"@ c #364A53",
"# c #D77BBA",
"$ c #CBDBFC",
"% c white",
/* pixels */
"XXXXXXXXXXXXXXXXXXXXXXXXXXXXXXXX",
"XOOOOOOOOOOOOOOOOOOOOOOOOOOOOO@.",
"XOXOOOOOOOOOOOOXOOOOOOOOOOOOXO@.",
"XOOOOOOOOOOOOOOOOOOOOOOOOOOOOO@.",
"XOOOOOOOOOOooooooooooOOOOOOOOO@.",
"XOOOOOOOooo%%%%%%%%%%oooOOOOOO@.",
"XOOOOOOOo%%%%%%%%%%%%%$oOOOOOO@.",
"XOOOOOOOo%%%%%%%%%%%%%%oOOOOOO@.",
"XOOOOOOo%%%%%%%%%%%%%%%$oOOOOO@.",
"XOOOOOOo%%%%%%%%%%%%%%%$oOOOOO@.",
"XOOOOOo%%%%%%%%%%%%%%%%$$oOOOO@.",
"XOOOOOo%%%%%%%%%%%%%%%%$$oOOOO@.",
"XOOOOOo%%%%%%%%%%%%%%%%$$oOOOO@.",
"XOOOOOo%%%%oo%%%%%%oo%%$$oOOOO@.",
"XOOOOOo%%%%oo%%%%%%oo%%$$oOOOO@.",
"XOXOOOo%%%%++%%%%%%++%%$$oOOXO@.",
"XOOOOOo%%##%%%%%%%%%%##$$oOOOO@.",
"XOOOOo$%%%%%%%%  %%%%%%$$$oOOO@.",
"XOOOOo$%%%%%%%%%%%%%%%%$$$oOOO@.",
"XOOOOo$%%%%%%%%%%%%%%%$$$$oOOO@.",
"XOOOO $%%%%%%%%%%%%%%%$$$$ OOO@.",
"XOOOo$$%%%%%%%%%%%%%%%$$$$$oOO@.",
"XOOo$$$%%%%%%%%%%%%%%%$$$$$$oO@.",
"XOOo$$$$%+%%%%%%%%%%%$$$$$$$oO@.",
"XOOo$$$$%+%%%%%%%%%+%$$$$$$$oO@.",
"XOo$$$$$++%%%%%%%%++$$$$$$$$$o@.",
"XO++$$$$++%%%%%%%%++$$$$$$$$$+@.",
"XOO+$$$++$$%%%%%%+O+$$$$$$$$+O@.",
"XOXO+o++$$$$%%%%%+O+$$$$$$o+XO@.",
"XOOOOO+o$$$$$$%%++O++$$$ooOOOO@.",
"X@@@@@@@oooo$$$++@@@+ooo@@@@@@@.",
"X...........ooo+................"
};
