/* XPM */
static char *_48a9b059f1844f38d5ee30a111bb010odDpPhMiopWKiTjJ[] = {
/* columns rows colors chars-per-pixel */
"32 32 9 1 ",
"  c black",
". c #3A0911",
"X c #112031",
"o c #1B2C3A",
"O c #273845",
"+ c #364A53",
"@ c #811426",
"# c #A11B31",
"$ c white",
/* pixels */
"oooooooooooooooooooooooooooooooo",
"oOOOOOOOOOOOOOOOOOOOOOOOOOOOOO+X",
"oOoOOOOOOOOOOOOoOOOOOOOOOOOOoO+X",
"oOOOOOOOOOOOOOOOOOOOOOOOOOOOOO+X",
"oOOOOOOOOOOOOOOOOOOOOOOOOOOOOO+X",
"oOOOOOOOOOOO.......OOOOOOOOOOO+X",
"oOOOOOOOOOO.@######.OOOOOOOOOO+X",
"oOOOOOOOOO.@###....#.OOOOOOOOO+X",
"oOOOOOOOO.@###.    .#.OOOOOOOO+X",
"oOOOOOOOO.@##.      .#.OOOOOOO+X",
"oOOOOOOO.@@##.      .#.OOOOOOO+X",
"oOOOOOOO.@@@#. $   $.#.OOOOOOO+X",
"oOOOOOOO.@.@#. $   $.#.OOOOOOO+X",
"oOOOOOOO.@.@#.      .@.OOOOOOO+X",
"oOOOOOOOO..@@#.     .@.OOOOOOO+X",
"oOoOOOOOOOO.@@@.   .@.OOOOOOoO+X",
"oOOOOOOOOOOO..@@...@.OOOOOOOOO+X",
"oOOOOOOOOOO.@@@#####@.OOOOOOOO+X",
"oOOOOOOOOO.@#########@.OOOOOOO+X",
"oOOOOOOOOO.@#########@.OOOOOOO+X",
"oOOOOOOOOO.###########.OOOOOOO+X",
"oOOOOOOOO.@###########.OOOOOOO+X",
"oOOOOOOOO.@######@####@.OOOOOO+X",
"oOOOOOOOO.@######@####@.OOOOOO+X",
"oOOOOOOOO.@#####@.@##@@.OOOOOO+X",
"oOOOOOOO.@@@#@#@@.@@#@@.OOOOOO+X",
"oOOOOOOO.@@@@#@@. .@@@@.OOOOOO+X",
"oOOOOOOO.@.@@@@.  .@@.@.OOOOOO+X",
"oOoOOOOOO..@.@@.   .@@.OOOOOoO+X",
"oOOOOOOOOO..O...OO ...OOOOOOOO+X",
"o++++++++++++++ ++++ ++++++++++X",
"oXXXXXXXXXXXXX XXXX XXXXXXXXXXXX"
};
